#!OML:ASF F:\VICON\USERDATA\INSTALL\rory3\rory3.ASF
:FULLY-SPECIFIED
:DEGREES
32
root 0.81416 17.9059 -26.2683 -2.7251 2.08285 -0.71361
lowerback 11.3168 -2.14051 -1.62557
upperback -0.506042 -2.8291 3.53134
thorax -6.6316 -1.26703 5.13263
lowerneck -13.7116 -1.49801 -3.70916
upperneck 13.8596 -1.26034 -0.0665026
head 6.50091 -0.812738 0.463528
rclavicle 6.08778e-015 1.43125e-014
rhumerus -38.934 -24.873 -68.755
rradius 18.27
rwrist 14.0969
rhand -13.8391 21.983
rfingers 7.12502
rthumb 12.2842 -7.63623
lclavicle 6.08778e-015 1.43125e-014
lhumerus -25.479 5.76287 82.1011
lradius 30.7837
lwrist 9.03142
lhand -28.4532 18.7322
lfingers 7.12502
lthumb -1.82363 48.7042
rfemur -24.9597 6.06564 22.6802
rtibia 27.3819
rfoot -2.17033 -7.57549
rtoes 8.28131
lfemur 11.6407 -4.41023 -22.4086
ltibia 33.1518
lfoot -0.363625 -16.6826
ltoes -7.39045
33
root 0.800058 17.9125 -26.0735 -2.82682 1.71032 -0.760872
lowerback 10.7004 -2.07202 -1.5085
upperback -0.329824 -2.73072 3.47773
thorax -6.11335 -1.23974 4.94943
lowerneck -13.0041 -1.3541 -3.75747
upperneck 13.6208 -1.11416 0.0877452
head 6.30186 -0.729013 0.539036
rclavicle -9.74045e-015 7.95139e-016
rhumerus -38.823 -25.1935 -68.7031
rradius 18.1886
rwrist 14.4579
rhand -12.9469 23.1141
rfingers 7.12502
rthumb 13.1444 -6.4516
lclavicle -9.74045e-015 7.95139e-016
lhumerus -25.8664 5.97064 82.0472
lradius 30.7749
lwrist 8.83283
lhand -28.4048 19.1158
lfingers 7.12502
lthumb -1.77685 49.0881
rfemur -24.5774 6.16027 22.9983
rtibia 27.8177
rfoot -2.0413 -7.34605
rtoes 8.71591
lfemur 11.0644 -3.81313 -22.0023
ltibia 35.1675
lfoot 2.082 -18.2147
ltoes -13.0963
34
root 0.782009 17.9254 -25.8828 -2.96515 1.34918 -1.04955
lowerback 10.3789 -1.29979 -0.226241
upperback 0.941551 -1.61928 2.62503
thorax -4.75543 -0.771306 3.10072
lowerneck -17.3687 -2.10013 -2.3081
upperneck 14.7337 -2.33277 0.324597
head 7.41438 -1.21608 0.217942
rclavicle 2.42517e-014 -1.90833e-014
rhumerus -37.4006 -29.7184 -69.1151
rradius 17.9734
rwrist 15.6944
rhand -13.658 20.9742
rfingers 7.12502
rthumb 12.4589 -8.63443
lclavicle 2.42517e-014 -1.90833e-014
lhumerus -22.9042 3.5613 82.0566
lradius 30.1682
lwrist 8.86707
lhand -28.054 20.3936
lfingers 7.12502
lthumb -1.43803 50.3685
rfemur -24.0874 6.37961 23.5785
rtibia 28.239
rfoot -2.17297 -7.00631
rtoes 9.77054
lfemur 10.627 -2.91745 -21.2329
ltibia 37.3362
lfoot -13.8592 -21.0682
ltoes -49.3966
35
root 0.761391 17.9763 -25.6865 -3.05058 1.19908 -1.23238
lowerback 10.6856 -1.36208 -0.368148
upperback 0.550836 -1.69128 2.92696
thorax -5.32012 -0.790519 3.53072
lowerneck -16.2519 -2.03032 -2.74847
upperneck 14.5513 -2.1662 0.343528
head 7.16712 -1.16176 0.325474
rclavicle 4.57205e-015 -1.59028e-015
rhumerus -37.7087 -28.5652 -68.8766
rradius 18.0571
rwrist 15.4707
rhand -13.9847 19.0646
rfingers 7.12502
rthumb 12.1439 -10.563
lclavicle 4.57205e-015 -1.59028e-015
lhumerus -24.1774 4.27947 82.273
lradius 30.1086
lwrist 8.68705
lhand -27.1004 19.6536
lfingers 7.12502
lthumb -0.517082 49.6327
rfemur -23.362 6.43041 24.0333
rtibia 28.4157
rfoot -2.56881 -6.65583
rtoes 11.3865
lfemur 7.88302 -2.17137 -20.7064
ltibia 39.3429
lfoot -15.9019 -30.6825
ltoes -46.3146
36
root 0.742308 17.9896 -25.4975 -3.04658 1.21429 -1.40821
lowerback 10.9192 -1.41973 -0.337181
upperback 0.360966 -1.74903 3.06464
thorax -5.64428 -0.811812 3.68194
lowerneck -16.1135 -1.95904 -2.79581
upperneck 14.597 -2.04378 0.238325
head 7.15599 -1.11621 0.313221
rclavicle -2.19906e-014 2.78299e-014
rhumerus -37.6633 -27.9438 -68.9558
rradius 18.2196
rwrist 15.2704
rhand -13.8844 19.1994
rfingers 7.12502
rthumb 12.2406 -10.4224
lclavicle -2.19906e-014 2.78299e-014
lhumerus -24.9152 4.55096 82.3967
lradius 30.1855
lwrist 8.79206
lhand -26.3801 19.1929
lfingers 7.12502
lthumb 0.178631 49.1726
rfemur -22.7242 6.38051 24.4638
rtibia 28.3796
rfoot -2.33433 -6.44692
rtoes 13.8034
lfemur 7.09897 -2.46799 -20.1772
ltibia 41.5443
lfoot -18.1725 -31.7432
ltoes -47.4437
37
root 0.723594 18.0216 -25.3077 -3.15101 1.1149 -1.71302
lowerback 10.9511 -1.33904 0.0679708
upperback 0.54116 -1.59815 3.00119
thorax -5.49485 -0.751901 3.35818
lowerneck -16.8961 -2.02415 -2.5542
upperneck 14.9422 -2.17381 0.280135
head 7.40259 -1.16079 0.264764
rclavicle 1.87852e-014 0
rhumerus -37.2101 -27.8841 -69.5182
rradius 18.4605
rwrist 14.5071
rhand -14.0737 19.3433
rfingers 7.12502
rthumb 12.058 -10.2893
lclavicle 1.87852e-014 0
lhumerus -24.9616 3.89464 82.5587
lradius 30.3031
lwrist 9.00844
lhand -27.1268 22.0436
lfingers 7.12502
lthumb -0.542592 52.0227
rfemur -21.8468 6.46365 25.0392
rtibia 28.1322
rfoot -1.16454 -6.0557
rtoes 10.4385
lfemur 6.11681 -2.21964 -19.5005
ltibia 43.6363
lfoot 17.1356 -24.4971
ltoes -9.33439
38
root 0.702703 18.052 -25.1245 -3.21275 0.877351 -2.19445
lowerback 10.9886 -1.2007 0.605452
upperback 0.727944 -1.35154 2.99615
thorax -5.34565 -0.645975 3.00722
lowerneck -17.7004 -2.09562 -2.34713
upperneck 15.3073 -2.31479 0.353441
head 7.66138 -1.20808 0.22984
rclavicle -8.39865e-015 -2.3059e-014
rhumerus -36.6143 -28.104 -69.9966
rradius 18.5899
rwrist 14.0548
rhand -14.3294 19.407
rfingers 7.12502
rthumb 11.8115 -10.2399
lclavicle -8.39865e-015 -2.3059e-014
lhumerus -24.8377 3.15834 82.7323
lradius 30.1896
lwrist 9.07923
lhand -27.6466 23.98
lfingers 7.12502
lthumb -1.04464 53.9571
rfemur -21.0036 6.79843 25.789
rtibia 27.8986
rfoot -1.03196 -6.13257
rtoes 6.15209
lfemur 4.70187 -1.7986 -18.6347
ltibia 45.9436
lfoot 19.3877 -23.4643
ltoes 4.20633
39
root 0.681728 18.081 -24.9413 -3.18658 0.887926 -2.79408
lowerback 11.0088 -1.21441 1.20815
upperback 0.695203 -1.28742 3.09947
thorax -5.40574 -0.626841 2.76709
lowerneck -17.8437 -2.12992 -2.36686
upperneck 15.4497 -2.37772 0.482751
head 7.73598 -1.22634 0.266351
rclavicle 4.00054e-014 -1.82882e-014
rhumerus -36.267 -28.0016 -70.2371
rradius 18.6529
rwrist 13.8469
rhand -14.4148 19.9181
rfingers 7.12502
rthumb 11.7291 -9.73351
lclavicle 4.00054e-014 -1.82882e-014
lhumerus -25.1703 2.63694 82.9357
lradius 30.0149
lwrist 8.91078
lhand -27.747 21.8658
lfingers 7.12502
lthumb -1.14156 51.8425
rfemur -20.2507 6.96041 26.6413
rtibia 27.7217
rfoot -1.62691 -6.339
rtoes 7.91397
lfemur 3.0242 -1.73277 -17.6374
ltibia 48.315
lfoot 21.1978 -26.063
ltoes 2.34926
40
root 0.663218 18.1175 -24.7554 -3.12901 1.01236 -3.16554
lowerback 11.0247 -1.37101 1.42902
upperback 0.391921 -1.44582 3.29836
thorax -5.72911 -0.705267 2.88562
lowerneck -17.0213 -2.04447 -2.54331
upperneck 15.4365 -2.22353 0.396699
head 7.58893 -1.1745 0.292337
rclavicle -3.97569e-016 -1.66979e-014
rhumerus -36.1632 -26.8665 -70.5184
rradius 18.8637
rwrist 13.1384
rhand -13.635 21.356
rfingers 7.12502
rthumb 12.481 -8.25128
lclavicle -3.97569e-016 -1.66979e-014
lhumerus -26.3377 2.2056 83.3421
lradius 30.0523
lwrist 8.37358
lhand -28.8363 19.9941
lfingers 7.12502
lthumb -2.19364 49.9626
rfemur -19.5542 6.85579 27.2394
rtibia 27.6051
rfoot -2.0959 -6.53541
rtoes 9.24347
lfemur 0.685256 -1.50345 -16.973
ltibia 50.7359
lfoot 20.4137 -33.4561
ltoes -12.1129
41
root 0.646895 18.1056 -24.5863 -3.17835 1.06767 -3.60273
lowerback 11.1722 -1.5644 1.64284
upperback 0.179618 -1.64793 3.54027
thorax -6.02829 -0.804888 3.06495
lowerneck -16.1834 -1.86446 -2.66695
upperneck 15.2415 -1.95533 0.300058
head 7.37664 -1.06434 0.319043
rclavicle -9.74045e-015 6.36111e-015
rhumerus -35.7514 -25.6166 -70.9895
rradius 18.9712
rwrist 12.4253
rhand -13.134 22.2408
rfingers 7.12502
rthumb 12.964 -7.33644
lclavicle -9.74045e-015 6.36111e-015
lhumerus -27.3747 2.11756 83.6397
lradius 30.2255
lwrist 8.18452
lhand -29.5161 20.3758
lfingers 7.12502
lthumb -2.85014 50.3365
rfemur -18.9457 6.83359 27.9021
rtibia 27.6556
rfoot -2.62215 -6.78653
rtoes 9.7661
lfemur -0.282707 -1.74722 -16.1932
ltibia 53.1423
lfoot 28.2508 -25.2119
ltoes 9.08115
42
root 0.626353 18.1117 -24.4156 -3.19498 0.802473 -4.06271
lowerback 11.0645 -1.41265 2.15255
upperback 0.438997 -1.39668 3.52109
thorax -5.71642 -0.697425 2.70486
lowerneck -16.8941 -1.96652 -2.54827
upperneck 15.3581 -2.1364 0.4862
head 7.54078 -1.12453 0.334058
rclavicle -2.67862e-014 2.8625e-014
rhumerus -34.8119 -25.9294 -71.5627
rradius 19.0184
rwrist 12.1317
rhand -13.4899 21.5835
rfingers 7.12502
rthumb 12.6209 -8.01526
lclavicle -2.67862e-014 2.8625e-014
lhumerus -27.1415 1.52038 83.7475
lradius 30.2391
lwrist 8.37433
lhand -29.1539 21.4065
lfingers 7.12502
lthumb -2.50037 51.3716
rfemur -18.327 7.04262 28.6401
rtibia 27.7368
rfoot -3.38429 -6.84015
rtoes 8.06097
lfemur -1.62951 -1.40941 -15.3934
ltibia 55.4193
lfoot 28.6369 -23.9781
ltoes 11.9515
43
root 0.611316 18.1269 -24.2436 -3.25999 0.572959 -4.22271
lowerback 11.0291 -1.28159 2.43768
upperback 0.617566 -1.20305 3.39211
thorax -5.52248 -0.611283 2.37147
lowerneck -17.3303 -2.09606 -2.48329
upperneck 15.4601 -2.35012 0.660109
head 7.65421 -1.20435 0.351911
rclavicle -1.54058e-014 -3.97569e-015
rhumerus -34.1042 -25.7442 -72.2671
rradius 19.3606
rwrist 11.5381
rhand -12.779 22.1763
rfingers 7.12502
rthumb 13.3062 -7.37888
lclavicle -1.54058e-014 -3.97569e-015
lhumerus -27.0605 1.0763 83.7716
lradius 30.2169
lwrist 8.44103
lhand -28.9434 23.24
lfingers 7.12502
lthumb -2.29706 53.2074
rfemur -17.6801 7.09904 29.0253
rtibia 27.9391
rfoot -4.22058 -6.68204
rtoes 6.90847
lfemur -3.05041 -0.950015 -14.9986
ltibia 57.4926
lfoot 27.8311 -23.069
ltoes 11.0574
44
root 0.599988 18.1464 -24.074 -3.4046 0.556925 -4.32239
lowerback 11.2776 -1.60097 2.16585
upperback 0.191526 -1.61214 3.74438
thorax -6.08591 -0.799265 2.98403
lowerneck -15.4305 -1.78958 -3.17177
upperneck 15.0025 -1.82518 0.65993
head 7.1753 -0.998111 0.539623
rclavicle 2.0773e-014 2.38542e-015
rhumerus -34.1911 -23.6449 -72.4407
rradius 19.6782
rwrist 10.9914
rhand -12.7918 22.65
rfingers 7.12502
rthumb 13.2939 -6.90601
lclavicle 2.0773e-014 2.38542e-015
lhumerus -28.6611 2.40825 83.8889
lradius 30.5125
lwrist 8.23233
lhand -28.5985 24.2705
lfingers 7.12502
lthumb -1.96396 54.2412
rfemur -16.8795 6.96298 29.2949
rtibia 28.003
rfoot -5.0367 -6.67072
rtoes 7.96286
lfemur -4.35274 -0.60649 -14.716
ltibia 59.3545
lfoot 25.6037 -22.1574
ltoes 8.37174
